<svg xmlns="http://www.w3.org/2000/svg" viewBox="0 0 100 100">
  <defs>
    <clipPath id="c"><circle cx="50" cy="50" r="48"/></clipPath>
  </defs>
  <circle cx="50" cy="50" r="49" fill="#fff"/>
  <g clip-path="url(#c)">
    <!-- ciel -->
    <rect x="0" y="0" width="100" height="62" fill="#8ECDE8"/>
    <!-- traînée d'avion -->
    <line x1="58" y1="16" x2="86" y2="7" stroke="#fff" stroke-width="1.6" stroke-linecap="round" opacity=".85"/>
    <path d="M86 7 l4 -1.3 -2.6 3.4 z" fill="#fff"/>
    <!-- nuages -->
    <g fill="#fff">
      <ellipse cx="72" cy="24" rx="11" ry="4.2"/>
      <ellipse cx="79" cy="20" rx="7" ry="3.4"/>
      <ellipse cx="30" cy="13" rx="8" ry="3"/>
    </g>
    <!-- volcan / montagne -->
    <path d="M18 62 Q38 18 56 40 Q64 50 74 62 Z" fill="#3D8B5F"/>
    <path d="M38 34 Q44 26 50 33 L46 40 Q42 36 38 34 Z" fill="#2E6E4B"/>
    <path d="M30 62 Q40 44 48 52 Q56 58 62 62 Z" fill="#2E6E4B"/>
    <!-- mer -->
    <rect x="0" y="62" width="100" height="38" fill="#2FA8A4"/>
    <rect x="0" y="62" width="100" height="5" fill="#5FC4BD"/>
    <!-- plage -->
    <path d="M0 100 L0 66 Q22 70 34 80 Q44 88 46 100 Z" fill="#EFD9A7"/>
    <!-- écume -->
    <path d="M0 64 Q24 68 36 78 Q45 86 47 100 L52 100 Q50 84 40 75 Q27 64 0 60 Z" fill="#fff" opacity=".9"/>
    <!-- palmier -->
    <path d="M14 92 Q17 74 13 62" stroke="#6B4A2F" stroke-width="3.2" fill="none" stroke-linecap="round"/>
    <g fill="#2E6E4B">
      <path d="M13 62 Q4 56 -2 60 Q6 50 14 58 Z"/>
      <path d="M13 62 Q8 52 0 50 Q12 46 15 58 Z"/>
      <path d="M13 62 Q16 50 24 47 Q26 56 15 60 Z"/>
      <path d="M13 62 Q22 54 30 57 Q24 64 14 61 Z"/>
      <path d="M13 62 Q20 60 26 66 Q17 67 12 63 Z"/>
    </g>
  </g>
  <circle cx="50" cy="50" r="48" fill="none" stroke="#fff" stroke-width="2.5"/>
</svg>
